<svg width="276" height="192" viewBox="0 0 276 192" fill="none" xmlns="http://www.w3.org/2000/svg">
<path d="M39.3641 34.8596C35.6313 38.7756 31.4117 45.5111 29.9511 49.7404C27.5167 55.8493 26.3806 57.259 23.1348 57.259C17.7791 57.259 9.33987 51.9333 6.90548 46.9209C4.63337 41.7518 7.71694 36.1128 14.5332 33.4499C20.5381 31.1003 35.6313 27.8109 41.3116 27.6542L46.0181 27.4976L39.3641 34.8596ZM91.947 30.4737C110.611 38.9323 121.484 60.0786 116.291 77.3089C112.72 88.5869 101.522 100.022 90.1618 104.094C79.2881 108.01 73.7702 108.167 62.2474 104.721C45.2066 99.5516 34.4953 84.8276 34.1707 66.3441C33.8461 50.2103 43.2591 35.7995 57.8655 29.6905C65.3309 26.5578 84.1569 27.0277 91.947 30.4737ZM222.917 32.98C243.529 46.9209 247.586 71.6699 232.655 90.9365C213.829 115.372 175.041 110.986 161.571 83.1045C156.053 71.8265 156.377 61.8016 162.707 49.5837C171.146 33.4499 182.831 27.1843 203.442 27.8109C214.316 28.2808 216.75 28.9073 222.917 32.98ZM252.779 31.5702C263.491 34.3897 268.522 38.1491 268.522 43.7881C268.522 49.2704 263.978 53.6563 255.863 56.3192L249.533 58.5122L245.152 49.4271C242.717 44.4146 238.011 37.3659 234.602 33.7632L228.435 27.1843L236.55 28.2808C240.932 28.9073 248.235 30.3171 252.779 31.5702Z" fill="black"/>
<path d="M10.3136 157.038C10.6382 159.231 12.748 160.014 18.5905 160.328L26.2183 160.797V175.678C26.2183 189.149 26.5429 190.559 29.1395 190.089C31.4116 189.619 31.8985 187.426 32.3854 175.208L32.8723 160.797L40.5 160.328C46.018 160.014 48.1278 159.231 48.1278 157.508C48.1278 155.628 44.7197 155.002 28.9772 154.689C11.2873 154.375 9.82669 154.532 10.3136 157.038ZM72.9586 171.136C68.2521 180.534 64.1948 188.523 63.8702 189.149C63.5456 189.932 64.844 190.402 66.6292 190.402C68.9013 190.402 71.0111 188.679 72.7963 184.92C75.2307 179.907 76.0422 179.438 82.5339 179.438C89.0256 179.438 89.8371 179.907 92.2715 184.92C93.8944 188.209 96.1665 190.402 97.9517 190.402C99.5747 190.402 100.873 189.776 100.873 188.993C100.873 186.33 84.1568 154.375 82.8585 154.375C82.047 154.375 77.6651 161.894 72.9586 171.136ZM84.6437 170.822C86.2666 172.859 86.1044 173.172 83.3454 173.172C80.911 173.172 80.0995 172.389 80.7487 170.822C81.3979 169.569 81.8847 168.473 82.2093 168.473C82.3716 168.473 83.5077 169.569 84.6437 170.822ZM125.217 156.725C125.217 157.978 128.625 166.123 133.007 174.738C143.069 195.258 144.367 195.258 154.754 172.545C158.974 163.304 162.544 155.315 162.544 155.002C162.544 154.689 161.084 154.375 159.136 154.375C156.702 154.375 155.079 156.098 153.131 160.797C151.671 164.4 148.912 170.509 147.126 174.425L143.718 181.63L136.902 168.003C132.845 159.701 129.274 154.375 127.651 154.375C126.353 154.375 125.217 155.472 125.217 156.725ZM183.642 167.22C183.642 178.341 184.129 180.534 187.7 184.92C192.082 190.716 197.762 192.282 205.714 190.089C213.504 188.053 216.101 182.414 216.101 166.906C216.101 155.628 215.776 154.219 213.342 154.689C210.908 155.158 210.421 157.195 209.934 167.22C209.447 178.028 209.122 179.594 205.227 182.57C199.872 186.643 198.898 186.486 194.191 181.787C190.621 178.498 190.134 176.618 190.134 166.123C190.134 155.472 189.81 154.375 186.888 154.375C183.967 154.375 183.642 155.472 183.642 167.22ZM238.822 172.389V190.402H252.617C263.653 190.402 266.412 189.932 266.412 188.053C266.412 186.33 263.815 185.703 255.538 185.39L244.502 184.92L244.015 179.907C243.528 174.895 243.691 174.895 251.643 173.799C263.004 172.389 263.004 168.473 251.643 168.473C243.691 168.473 243.528 168.316 244.015 164.087C244.502 160.014 244.827 159.858 255.538 159.388C263.815 159.074 266.412 158.448 266.412 156.725C266.412 154.845 263.653 154.375 252.617 154.375H238.822V172.389Z" fill="black"/>
</svg>
