<svg width="301" height="222" viewBox="0 0 301 222" fill="none" xmlns="http://www.w3.org/2000/svg">
<path d="M42.708 40.0377C38.6322 44.5785 34.0247 52.3889 32.4298 57.293C29.7716 64.3768 28.5311 66.0115 24.9869 66.0115C19.1389 66.0115 9.92386 59.8359 7.26568 54.0236C4.78472 48.0296 8.15174 41.4907 15.5946 38.4029C22.1515 35.6784 38.6322 31.8641 44.8346 31.6824L49.9737 31.5008L42.708 40.0377ZM100.125 34.9519C120.504 44.7602 132.377 69.281 126.706 89.2608C122.808 102.339 110.58 115.598 98.1753 120.32C86.3022 124.861 80.277 125.043 67.6949 121.047C49.0877 115.053 37.3917 97.9793 37.0373 76.5464C36.6828 57.8379 46.9611 41.1275 62.9102 34.0437C71.0619 30.411 91.6185 30.9559 100.125 34.9519ZM243.135 37.858C265.641 54.0236 270.071 82.722 253.767 105.063C233.211 133.398 190.857 128.312 176.149 95.9814C170.123 82.9036 170.478 71.2789 177.389 57.1114C186.604 38.4029 199.363 31.1375 221.869 31.8641C233.742 32.409 236.401 33.1355 243.135 37.858ZM275.742 36.2233C287.438 39.4928 292.931 43.852 292.931 50.3909C292.931 56.7481 287.969 61.8339 279.109 64.9217L272.197 67.4646L267.413 56.9297C264.754 51.1174 259.615 42.9438 255.894 38.7662L249.16 31.1375L258.02 32.409C262.805 33.1355 270.78 34.7702 275.742 36.2233Z" fill="white"/>
<path d="M10.9873 181.713C11.3418 184.256 13.6455 185.164 20.0251 185.528L28.3541 186.073V203.328C28.3541 218.949 28.7085 220.583 31.5439 220.038C34.0249 219.493 34.5565 216.951 35.0881 202.783L35.6198 186.073L43.9487 185.528C49.9739 185.164 52.2777 184.256 52.2777 182.258C52.2777 180.079 48.5562 179.352 31.3667 178.989C12.0506 178.626 10.4557 178.807 10.9873 181.713ZM79.3911 198.061C74.252 208.959 69.8217 218.222 69.4672 218.949C69.1128 219.857 70.5305 220.402 72.4798 220.402C74.9608 220.402 77.2646 218.404 79.2139 214.044C81.8721 208.232 82.7581 207.687 89.8466 207.687C96.9351 207.687 97.8211 208.232 100.479 214.044C102.251 217.859 104.732 220.402 106.682 220.402C108.454 220.402 109.872 219.675 109.872 218.767C109.872 215.679 91.6187 178.626 90.201 178.626C89.315 178.626 84.5302 187.344 79.3911 198.061ZM92.1504 197.697C93.9225 200.059 93.7453 200.422 90.7327 200.422C88.0745 200.422 87.1884 199.514 87.8973 197.697C88.6061 196.244 89.1378 194.973 89.4922 194.973C89.6694 194.973 90.9099 196.244 92.1504 197.697ZM136.453 181.35C136.453 182.803 140.175 192.248 144.959 202.238C155.947 226.032 157.364 226.032 168.706 199.695C173.313 188.979 177.212 179.715 177.212 179.352C177.212 178.989 175.617 178.626 173.491 178.626C170.832 178.626 169.06 180.624 166.934 186.073C165.339 190.25 162.326 197.334 160.377 201.875L156.655 210.23L149.213 194.428C144.782 184.801 140.884 178.626 139.111 178.626C137.694 178.626 136.453 179.897 136.453 181.35ZM200.25 193.52C200.25 206.416 200.781 208.959 204.68 214.044C209.465 220.765 215.667 222.581 224.35 220.038C232.857 217.677 235.692 211.138 235.692 193.156C235.692 180.079 235.337 178.444 232.679 178.989C230.021 179.534 229.489 181.895 228.958 193.52C228.426 206.052 228.072 207.869 223.819 211.32C217.971 216.042 216.907 215.861 211.768 210.412C207.87 206.597 207.338 204.418 207.338 192.248C207.338 179.897 206.984 178.626 203.794 178.626C200.604 178.626 200.25 179.897 200.25 193.52ZM260.502 199.514V220.402H275.565C287.615 220.402 290.628 219.857 290.628 217.677C290.628 215.679 287.792 214.953 278.754 214.589L266.704 214.044L266.172 208.232C265.641 202.42 265.818 202.42 274.501 201.148C286.906 199.514 286.906 194.973 274.501 194.973C265.818 194.973 265.641 194.791 266.172 189.887C266.704 185.164 267.058 184.983 278.754 184.438C287.792 184.075 290.628 183.348 290.628 181.35C290.628 179.17 287.615 178.626 275.565 178.626H260.502V199.514Z" fill="white"/>
</svg>
