<svg width="270" height="111" viewBox="0 0 270 111" fill="none" xmlns="http://www.w3.org/2000/svg">
<path d="M4.70166 31.1373C4.70166 31.1373 37.3454 27.2246 41.0364 24.9838C44.7274 22.743 48.4052 19.3923 53.9351 18.2754C59.465 17.1585 96.5869 10.45 96.5869 10.45C96.5869 10.45 101.323 9.05211 108.169 14.3627C115.016 19.6732 130.024 36.7289 134.231 36.1739C138.445 35.612 140.548 29.4655 139.232 26.6697C137.916 23.8739 112.337 3.65725 107.911 2.33663C101.607 0.454053 93.4317 0.657765 83.4236 2.33663C73.4221 4.0155 6.54717 18.732 6.54717 18.732C6.54717 18.732 -2.13798 23.031 4.70166 31.1373Z" fill="black" stroke="black" stroke-width="0.330737" stroke-miterlimit="10"/>
<g style="mix-blend-mode:multiply">
<path d="M136.606 28.0606C136.606 28.0606 136.401 32.3808 133.973 31.9733C130.686 31.4254 110.279 8.20924 103.433 9.32615C103.433 9.32615 109.075 11.2298 115.644 17.5027C119.95 21.6191 138.412 44.0907 136.606 28.0606Z" fill="#706F6F"/>
</g>
<path d="M180.627 48.3546L240.517 27.4354C240.517 27.4354 255.155 23.4806 257.285 24.6116C259.415 25.7425 269 46.0927 269 48.3546C269 50.6165 267.399 58.196 265.276 58.8141C263.734 59.2637 261.75 58.8914 260.751 55.8568C259.818 53.0329 256.227 33.5679 252.503 33.7505C248.778 33.9332 218.966 44.9547 218.966 44.9547C218.966 44.9547 210.181 49.4785 206.457 52.8714C202.733 56.2642 185.165 60.788 185.165 60.788C185.165 60.788 178.775 55.4143 180.64 48.3476L180.627 48.3546Z" fill="black" stroke="black" stroke-width="0.330737" stroke-miterlimit="10"/>
<g style="mix-blend-mode:multiply">
<path d="M184.959 48.6639C184.959 48.6639 252.608 23.9445 256.299 26.1924C256.299 26.1924 244.261 27.9415 228.676 34.5375C213.092 41.1336 184.959 50.0126 184.959 50.0126V48.6639Z" fill="#706F6F"/>
</g>
<g style="mix-blend-mode:multiply">
<path d="M253.766 33.1887C253.766 33.1887 255.923 33.1887 257.06 35.6121C258.198 38.0356 263.523 52.9698 263.523 52.9698C263.523 52.9698 264.032 56.4681 266.943 51.0873C266.943 51.0873 264.912 57.8027 263.397 55.8569C261.882 53.9111 256.935 37.3613 256.935 37.3613C256.935 37.3613 255.036 32.6267 253.766 33.1887Z" fill="#706F6F"/>
</g>
<path d="M187.586 49.1693C187.427 46.774 181.256 45.5025 179.179 44.6736C177.102 43.8447 168.794 46.0504 168.794 46.0504C160.743 43.8447 132.71 39.7073 116.617 39.7073C100.523 39.7073 95.0724 47.7012 93.2533 47.4273C91.4343 47.1533 81.8297 46.8793 77.6756 46.0504C73.5216 45.2215 74.3021 36.1247 51.7128 27.4494C29.1301 18.7811 6.54741 18.7319 6.54741 18.7319C-2.28325 22.0054 2.07586 31.7203 2.07586 31.7203L3.43188 36.1809C6.28944 37.6069 5.5089 43.5708 6.54741 52.3936C7.58593 61.2165 11.482 72.519 15.894 79.4101C20.3061 86.3012 36.9223 94.0211 45.2304 94.2951C53.5385 94.5691 60.8081 92.9183 66.2586 83.5405C71.7091 74.1698 77.4243 57.6269 77.4243 57.6269L84.1713 58.7298C84.1713 58.7298 86.0962 58.9475 87.7102 60.9004C89.3242 62.8532 90.6405 66.5411 92.7374 73.0599C97.7381 88.5841 109.354 100.631 109.354 100.631C109.354 100.631 113.058 105.851 131.473 109.524C146.74 112.573 159.718 107.796 159.718 107.796C171.439 102.76 174.026 76.2139 174.026 76.2139C174.026 76.2139 175.236 66.8712 179.192 64.518C184.067 61.6098 184.662 61.3991 187.599 60.7809C189.987 60.2822 187.758 51.5577 187.599 49.1623L187.586 49.1693ZM58.7244 84.6504C52.4933 88.2329 37.4382 89.6097 28.0916 81.8968C18.745 74.1768 14.333 60.6685 13.0365 44.6807C11.74 28.6928 17.7329 26.9577 17.7329 26.9577C17.7329 26.9577 27.5756 26.487 40.2958 29.7886C53.0159 33.0972 67.0325 42.4679 67.2971 48.5371C67.5551 54.5993 64.9621 81.0679 58.731 84.6504H58.7244ZM160.743 101.741C154.77 104.776 146.542 105.05 139.623 104.495C132.704 103.947 114.791 103.392 108.302 82.4377C108.302 82.4377 106.483 72.512 104.928 70.3062C103.374 68.1005 98.6973 60.1347 98.6973 57.36C98.6973 51.5788 103.427 48.2491 103.427 48.2491C103.427 48.2491 108.824 44.6666 115.829 44.6666C122.841 44.6666 158.66 46.5984 163.594 53.7634C168.529 60.9285 168.264 69.2034 169.045 75.8205C169.825 82.4377 166.71 98.6995 160.737 101.734L160.743 101.741Z" fill="#C5A068" stroke="black" stroke-width="0.330737" stroke-miterlimit="10"/>
<g style="mix-blend-mode:multiply">
<path d="M19.4796 26.9788C19.4796 26.9788 11.9983 24.766 10.4372 33.7575C8.88279 42.7489 9.42519 55.2596 14.0687 68.9365C18.7123 82.6133 31.7235 87.5234 31.7235 87.5234C31.7235 87.5234 42.274 91.7101 51.9712 89.8837C56.9057 88.9565 59.3334 86.4206 60.7687 82.5009C60.7687 82.5009 51.2501 94.0493 29.3157 82.817C25.3469 80.7869 22.3041 76.1507 19.8963 71.6339C15.2395 62.9094 13.189 52.1969 13.0302 44.6736C12.6135 24.752 19.473 26.9718 19.473 26.9718L19.4796 26.9788Z" fill="#706F6F"/>
</g>
<g style="mix-blend-mode:multiply">
<path d="M103.433 46.6054C103.433 46.6054 95.588 49.338 96.3686 60.788C97.1491 72.238 104.419 86.1958 106.496 90.3825C108.573 94.5691 116.881 102.472 123.886 104.727C130.891 106.981 150.682 107.326 158.441 102.739C158.441 102.739 136.732 108.162 120.082 99.0508C120.082 99.0508 111.252 93.9931 108.745 83.7513C108.745 83.7513 106.754 74.4086 105.411 71.1843C103.255 66.0283 100.529 64.785 98.7102 57.367C97.1557 51.0239 103.44 46.5984 103.44 46.5984L103.433 46.6054Z" fill="#706F6F"/>
</g>
<g style="mix-blend-mode:multiply">
<path d="M100.523 69.4912C100.523 69.4912 101.039 74.4505 105.973 81.3487L100.523 69.4912Z" fill="#706F6F"/>
</g>
<g style="mix-blend-mode:multiply">
<path d="M90.2633 51.5928C90.2633 51.5928 85.7322 57.943 87.6769 58.6876C89.6217 59.4322 90.2633 51.5928 90.2633 51.5928Z" fill="#706F6F"/>
</g>
<g style="mix-blend-mode:multiply">
<path d="M72.1455 49.2534C72.1455 49.2534 73.8256 58.0692 74.7319 57.3738C75.6381 56.6784 72.1455 49.2534 72.1455 49.2534Z" fill="#706F6F"/>
</g>
<g style="mix-blend-mode:multiply">
<path d="M62.6997 85.402C62.6997 85.402 69.7312 75.6449 74.884 59.2847C74.884 59.2847 65.7557 79.8245 62.6997 85.402Z" fill="#706F6F"/>
</g>
<g style="mix-blend-mode:multiply">
<path d="M74.8843 48.7056C74.8843 48.7056 87.0289 51.1782 90.2635 50.2158L93.3725 48.7056C93.3725 48.7056 88.9737 49.8927 86.3807 49.5696C83.7877 49.2465 74.8843 48.7056 74.8843 48.7056Z" fill="#706F6F"/>
</g>
<g style="mix-blend-mode:multiply">
<path d="M178.92 54.1988C178.92 54.1988 179.707 51.8596 180.283 54.1988C180.858 56.538 180.283 61.7572 180.283 61.7572C180.283 61.7572 179.178 62.9936 178.92 61.7572C178.662 60.5209 178.92 54.1988 178.92 54.1988Z" fill="#706F6F"/>
</g>
<g style="mix-blend-mode:multiply">
<path d="M183.968 50.0121C183.968 50.0121 180.502 51.7261 178.808 51.5856C177.115 51.4452 165.42 48.242 139.226 43.4863C139.226 43.4863 159.718 46.0011 178.808 50.4336C180.945 50.9324 183.968 50.0121 183.968 50.0121Z" fill="#706F6F"/>
</g>
<g style="mix-blend-mode:multiply">
<path d="M72.1456 46.6053C72.1456 46.6053 68.653 36.8833 58.5589 32.3455C53.3465 30.0063 48.0349 28.0675 43.5766 26.6415C39.3961 25.3069 35.9762 24.4288 34.0977 24.0986C30.2148 23.4102 16.4958 20.7971 15.0737 20.9376C13.6515 21.0781 10.8006 21.4153 8.0819 21.5206C5.36325 21.626 4.45703 21.5206 4.45703 21.5206C4.45703 21.5206 7.21537 22.9326 11.7068 22.1739C15.2258 21.5838 23.223 22.8623 23.223 22.8623C23.223 22.8623 59.5908 26.3676 72.1456 46.6053Z" fill="#706F6F"/>
</g>
<path opacity="0.75" d="M9.65641 36.5604C9.07432 40.8103 9.921 62.8393 17.2237 75.4133C24.5263 87.9872 41.7246 90.4107 44.5888 90.3826C47.453 90.3545 56.8327 91.0991 60.7751 83.8708C64.0626 77.8367 69.4867 53.328 66.8077 46.6055C62.6669 36.1951 40.0842 29.7326 40.0842 29.7326C40.0842 29.7326 22.3236 25.8971 17.7132 26.5996C17.7132 26.5996 11.1183 25.9252 9.66303 36.5534L9.65641 36.5604Z" fill="black"/>
<path opacity="0.75" d="M96.3161 57.4094C96.3161 57.4094 95.5951 50.701 109.261 45.6854C117.04 42.8335 149.254 47.9544 149.254 47.9544C149.254 47.9544 161.881 50.8063 163.614 53.7707C165.347 56.7351 169.872 65.881 169.098 80.4429C168.344 94.6396 164.263 99.2688 160.757 101.734C160.757 101.734 156.06 105.197 146.641 105.9C129.013 107.221 122.16 105.099 116.088 100.47C96.3228 85.3953 96.3227 57.4094 96.3227 57.4094H96.3161Z" fill="black"/>
<path d="M156.159 55.1616C156.159 55.1616 162.695 55.9484 163.263 62.7411C163.263 62.7411 160.135 56.0327 156.159 55.1616Z" fill="white"/>
</svg>
