<svg width="440" height="319" viewBox="0 0 440 319" fill="none" xmlns="http://www.w3.org/2000/svg">
<path d="M7.05769 187.951C7.05769 187.951 60.4713 181.549 66.5107 177.882C72.5502 174.216 78.568 168.733 87.6164 166.905C96.6648 165.078 157.406 154.101 157.406 154.101C157.406 154.101 165.155 151.814 176.358 160.503C187.56 169.193 212.118 197.1 219.002 196.192C225.896 195.273 229.338 185.215 227.184 180.641C225.031 176.066 183.176 142.986 175.936 140.825C165.621 137.745 152.243 138.078 135.867 140.825C119.502 143.573 10.0774 167.652 10.0774 167.652C10.0774 167.652 -4.13372 174.687 7.05769 187.951Z" fill="black" stroke="black" stroke-width="0.541171" stroke-miterlimit="10"/>
<g style="mix-blend-mode:multiply">
<path d="M222.887 182.917C222.887 182.917 222.552 189.985 218.58 189.319C213.2 188.422 179.81 150.434 168.608 152.262C168.608 152.262 177.84 155.377 188.588 165.641C195.634 172.377 225.842 209.146 222.887 182.917Z" fill="#706F6F"/>
</g>
<path d="M294.918 216.123L392.913 181.894C392.913 181.894 416.865 175.422 420.35 177.273C423.835 179.124 439.518 212.422 439.518 216.123C439.518 219.824 436.899 232.226 433.425 233.237C430.903 233.973 427.656 233.364 426.022 228.398C424.496 223.778 418.618 191.928 412.525 192.227C406.431 192.526 357.65 210.56 357.65 210.56C357.65 210.56 343.277 217.962 337.183 223.513C331.089 229.065 302.342 236.467 302.342 236.467C302.342 236.467 291.887 227.674 294.939 216.111L294.918 216.123Z" fill="black" stroke="black" stroke-width="0.541171" stroke-miterlimit="10"/>
<g style="mix-blend-mode:multiply">
<path d="M302.006 216.628C302.006 216.628 412.697 176.181 418.737 179.859C418.737 179.859 399.038 182.721 373.538 193.514C348.038 204.307 302.006 218.835 302.006 218.835V216.628Z" fill="#706F6F"/>
</g>
<g style="mix-blend-mode:multiply">
<path d="M414.592 191.307C414.592 191.307 418.121 191.307 419.982 195.273C421.844 199.238 430.557 223.674 430.557 223.674C430.557 223.674 431.39 229.398 436.153 220.594C436.153 220.594 432.83 231.582 430.351 228.398C427.873 225.214 419.777 198.135 419.777 198.135C419.777 198.135 416.67 190.388 414.592 191.307Z" fill="#706F6F"/>
</g>
<path d="M306.304 217.456C306.044 213.536 295.946 211.456 292.548 210.1C289.149 208.743 275.555 212.353 275.555 212.353C262.383 208.743 216.513 201.974 190.18 201.974C163.846 201.974 154.928 215.054 151.951 214.605C148.975 214.157 133.259 213.709 126.462 212.353C119.665 210.996 120.942 196.112 83.9803 181.916C47.0291 167.733 10.078 167.652 10.078 167.652C-4.37128 173.009 2.76136 188.905 2.76136 188.905L4.98016 196.204C9.65588 198.537 8.37871 208.295 10.078 222.732C11.7773 237.168 18.1523 255.662 25.3715 266.938C32.5907 278.213 59.7791 290.845 73.3734 291.293C86.9676 291.742 98.8625 289.041 107.781 273.696C116.7 258.363 126.051 231.295 126.051 231.295L137.091 233.099C137.091 233.099 140.24 233.456 142.881 236.651C145.522 239.846 147.676 245.881 151.107 256.547C159.29 281.949 178.296 301.661 178.296 301.661C178.296 301.661 184.357 310.201 214.489 316.212C239.47 321.201 260.705 313.385 260.705 313.385C279.884 305.144 284.116 261.708 284.116 261.708C284.116 261.708 286.097 246.421 292.569 242.57C300.546 237.812 301.52 237.467 306.326 236.456C310.233 235.639 306.586 221.364 306.326 217.444L306.304 217.456ZM95.4531 275.512C85.2575 281.374 60.6234 283.627 45.3299 271.007C30.0364 258.375 22.8172 236.272 20.6958 210.111C18.5744 183.951 28.3804 181.112 28.3804 181.112C28.3804 181.112 44.4856 180.342 65.2991 185.744C86.1125 191.158 109.047 206.491 109.48 216.421C109.902 226.341 105.66 269.65 95.464 275.512H95.4531ZM262.383 303.477C252.609 308.442 239.145 308.891 227.824 307.983C216.502 307.086 187.192 306.178 176.575 271.892C176.575 271.892 173.598 255.651 171.055 252.041C168.511 248.432 160.859 235.398 160.859 230.858C160.859 221.398 168.598 215.95 168.598 215.95C168.598 215.95 177.43 210.088 188.892 210.088C200.365 210.088 258.973 213.249 267.048 224.973C275.122 236.697 274.689 250.237 275.966 261.064C277.243 271.892 272.146 298.5 262.372 303.466L262.383 303.477Z" fill="#C5A068" stroke="black" stroke-width="0.541171" stroke-miterlimit="10"/>
<g style="mix-blend-mode:multiply">
<path d="M31.238 181.147C31.238 181.147 18.9968 177.526 16.4424 192.238C13.8989 206.951 14.7864 227.421 22.3845 249.8C29.9825 272.179 51.2722 280.213 51.2722 280.213C51.2722 280.213 68.5355 287.064 84.4027 284.075C92.477 282.558 96.4492 278.409 98.7978 271.995C98.7978 271.995 83.2229 290.891 47.3325 272.512C40.8384 269.191 35.8596 261.605 31.9199 254.214C24.3002 239.938 20.945 222.41 20.6852 210.1C20.0033 177.503 31.2272 181.135 31.2272 181.135L31.238 181.147Z" fill="#706F6F"/>
</g>
<g style="mix-blend-mode:multiply">
<path d="M168.608 213.261C168.608 213.261 155.772 217.732 157.049 236.467C158.326 255.202 170.221 278.041 173.619 284.891C177.018 291.742 190.612 304.673 202.074 308.362C213.536 312.052 245.92 312.615 258.616 305.109C258.616 305.109 223.093 313.983 195.851 299.075C195.851 299.075 181.402 290.799 177.299 274.041C177.299 274.041 174.042 258.754 171.844 253.478C168.316 245.042 163.857 243.007 160.88 230.87C158.337 220.49 168.619 213.249 168.619 213.249L168.608 213.261Z" fill="#706F6F"/>
</g>
<g style="mix-blend-mode:multiply">
<path d="M163.846 250.708C163.846 250.708 164.69 258.823 172.765 270.11L163.846 250.708Z" fill="#706F6F"/>
</g>
<g style="mix-blend-mode:multiply">
<path d="M147.059 221.421C147.059 221.421 139.645 231.812 142.827 233.03C146.009 234.249 147.059 221.421 147.059 221.421Z" fill="#706F6F"/>
</g>
<g style="mix-blend-mode:multiply">
<path d="M117.414 217.594C117.414 217.594 120.163 232.019 121.646 230.881C123.128 229.743 117.414 217.594 117.414 217.594Z" fill="#706F6F"/>
</g>
<g style="mix-blend-mode:multiply">
<path d="M101.958 276.742C101.958 276.742 113.463 260.777 121.895 234.007C121.895 234.007 106.958 267.616 101.958 276.742Z" fill="#706F6F"/>
</g>
<g style="mix-blend-mode:multiply">
<path d="M121.895 216.697C121.895 216.697 141.767 220.743 147.059 219.169L152.146 216.697C152.146 216.697 144.949 218.64 140.706 218.111C136.463 217.583 121.895 216.697 121.895 216.697Z" fill="#706F6F"/>
</g>
<g style="mix-blend-mode:multiply">
<path d="M292.125 225.686C292.125 225.686 293.413 221.858 294.355 225.686C295.296 229.513 294.355 238.053 294.355 238.053C294.355 238.053 292.547 240.076 292.125 238.053C291.703 236.03 292.125 225.686 292.125 225.686Z" fill="#706F6F"/>
</g>
<g style="mix-blend-mode:multiply">
<path d="M300.383 218.835C300.383 218.835 294.712 221.64 291.941 221.41C289.17 221.18 270.035 215.939 227.174 208.157C227.174 208.157 260.705 212.272 291.941 219.525C295.437 220.341 300.383 218.835 300.383 218.835Z" fill="#706F6F"/>
</g>
<g style="mix-blend-mode:multiply">
<path d="M117.414 213.261C117.414 213.261 111.699 197.353 95.1825 189.928C86.6536 186.1 77.9624 182.928 70.6674 180.595C63.827 178.411 58.2313 176.974 55.1575 176.434C48.8041 175.308 26.3563 171.032 24.0293 171.262C21.7023 171.492 17.0374 172.043 12.5889 172.216C8.14052 172.388 6.65771 172.216 6.65771 172.216C6.65771 172.216 11.1711 174.526 18.5202 173.285C24.2782 172.319 37.3638 174.411 37.3638 174.411C37.3638 174.411 96.8709 180.147 117.414 213.261Z" fill="#706F6F"/>
</g>
<path opacity="0.75" d="M15.1653 196.824C14.2129 203.778 15.5983 239.823 27.5473 260.398C39.4964 280.972 67.6373 284.937 72.3238 284.891C77.0104 284.845 92.358 286.064 98.8087 274.236C104.188 264.363 113.063 224.26 108.68 213.261C101.904 196.227 64.9531 185.652 64.9531 185.652C64.9531 185.652 35.8922 179.376 28.3483 180.526C28.3483 180.526 17.5573 179.422 15.1762 196.813L15.1653 196.824Z" fill="black"/>
<path opacity="0.75" d="M156.963 230.938C156.963 230.938 155.783 219.962 178.144 211.755C190.873 207.088 243.583 215.468 243.583 215.468C243.583 215.468 264.245 220.134 267.08 224.985C269.916 229.835 277.319 244.8 276.053 268.627C274.819 291.857 268.141 299.431 262.405 303.466C262.405 303.466 254.72 309.132 239.307 310.282C210.463 312.442 199.25 308.971 189.314 301.397C156.974 276.731 156.974 230.938 156.974 230.938H156.963Z" fill="black"/>
<path d="M254.882 227.26C254.882 227.26 265.575 228.548 266.506 239.662C266.506 239.662 261.387 228.686 254.882 227.26Z" fill="white"/>
<path d="M7.05672 120.36C7.05672 120.36 60.4703 113.958 66.5098 110.292C72.5492 106.625 78.5671 101.142 87.6154 99.3148C96.6638 97.4872 157.405 86.5105 157.405 86.5105C157.405 86.5105 165.154 84.2232 176.357 92.9126C187.559 101.602 212.117 129.51 219.001 128.602C225.895 127.682 229.337 117.625 227.183 113.05C225.03 108.476 183.175 75.3958 175.935 73.2349C165.62 70.1545 152.242 70.4878 135.866 73.2349C119.501 75.982 10.0765 100.062 10.0765 100.062C10.0765 100.062 -4.1347 107.096 7.05672 120.36Z" fill="black" stroke="black" stroke-width="0.541171" stroke-miterlimit="10"/>
<g style="mix-blend-mode:multiply">
<path d="M222.886 115.326C222.886 115.326 222.551 122.395 218.579 121.728C213.199 120.832 179.809 82.8439 168.607 84.6715C168.607 84.6715 177.839 87.7863 188.587 98.0505C195.633 104.786 225.841 141.555 222.886 115.326Z" fill="#706F6F"/>
</g>
<path d="M294.917 148.532L392.912 114.303C392.912 114.303 416.864 107.832 420.349 109.682C423.834 111.533 439.518 144.831 439.518 148.532C439.518 152.233 436.898 164.635 433.424 165.647C430.902 166.382 427.655 165.773 426.021 160.808C424.495 156.187 418.617 124.337 412.524 124.636C406.43 124.935 357.649 142.969 357.649 142.969C357.649 142.969 343.276 150.371 337.182 155.923C331.088 161.474 302.341 168.877 302.341 168.877C302.341 168.877 291.886 160.084 294.938 148.521L294.917 148.532Z" fill="black" stroke="black" stroke-width="0.541171" stroke-miterlimit="10"/>
<g style="mix-blend-mode:multiply">
<path d="M302.005 149.038C302.005 149.038 412.696 108.591 418.736 112.269C418.736 112.269 399.037 115.131 373.537 125.923C348.037 136.716 302.005 151.245 302.005 151.245V149.038Z" fill="#706F6F"/>
</g>
<g style="mix-blend-mode:multiply">
<path d="M414.591 123.717C414.591 123.717 418.12 123.717 419.981 127.682C421.843 131.647 430.556 156.084 430.556 156.084C430.556 156.084 431.389 161.808 436.152 153.003C436.152 153.003 432.829 163.992 430.35 160.808C427.872 157.624 419.776 130.544 419.776 130.544C419.776 130.544 416.669 122.797 414.591 123.717Z" fill="#706F6F"/>
</g>
<path d="M306.303 149.865C306.043 145.946 295.945 143.866 292.547 142.509C289.148 141.153 275.554 144.762 275.554 144.762C262.382 141.153 216.512 134.383 190.179 134.383C163.845 134.383 154.927 147.463 151.95 147.015C148.974 146.567 133.258 146.118 126.461 144.762C119.664 143.406 120.941 128.521 83.9793 114.326C47.0282 100.142 10.077 100.062 10.077 100.062C-4.37226 105.418 2.76038 121.314 2.76038 121.314L4.97918 128.613C9.6549 130.946 8.37774 140.705 10.077 155.141C11.7763 169.578 18.1513 188.072 25.3705 199.347C32.5897 210.623 59.7782 223.255 73.3724 223.703C86.9666 224.151 98.8615 221.45 107.78 206.106C116.699 190.773 126.05 163.704 126.05 163.704L137.09 165.509C137.09 165.509 140.239 165.865 142.88 169.06C145.521 172.256 147.675 178.29 151.106 188.957C159.289 214.358 178.295 234.07 178.295 234.07C178.295 234.07 184.356 242.611 214.488 248.622C239.469 253.61 260.704 245.794 260.704 245.794C279.883 237.553 284.115 194.117 284.115 194.117C284.115 194.117 286.096 178.83 292.568 174.98C300.545 170.221 301.519 169.876 306.325 168.865C310.232 168.049 306.585 153.773 306.325 149.854L306.303 149.865ZM95.4521 207.922C85.2565 213.784 60.6224 216.036 45.3289 203.416C30.0354 190.784 22.8162 168.681 20.6948 142.521C18.5734 116.36 28.3794 113.521 28.3794 113.521C28.3794 113.521 44.4847 112.751 65.2981 118.153C86.1115 123.567 109.046 138.9 109.479 148.831C109.901 158.75 105.659 202.06 95.463 207.922H95.4521ZM262.382 235.887C252.608 240.852 239.144 241.3 227.823 240.392C216.501 239.496 187.191 238.588 176.574 204.301C176.574 204.301 173.597 188.06 171.054 184.451C168.51 180.842 160.858 167.808 160.858 163.267C160.858 153.808 168.597 148.36 168.597 148.36C168.597 148.36 177.429 142.498 188.891 142.498C200.364 142.498 258.972 145.659 267.047 157.383C275.121 169.106 274.688 182.646 275.965 193.474C277.242 204.301 272.145 230.91 262.371 235.875L262.382 235.887Z" fill="#774D0D" stroke="black" stroke-width="0.541171" stroke-miterlimit="10"/>
<g style="mix-blend-mode:multiply">
<path d="M31.2371 113.556C31.2371 113.556 18.9958 109.935 16.4414 124.648C13.8979 139.36 14.7855 159.831 22.3835 182.21C29.9815 204.588 51.2712 212.623 51.2712 212.623C51.2712 212.623 68.5346 219.473 84.4017 216.485C92.476 214.968 96.4482 210.818 98.7969 204.405C98.7969 204.405 83.222 223.301 47.3315 204.922C40.8374 201.6 35.8587 194.014 31.9189 186.623C24.2993 172.348 20.944 154.819 20.6842 142.509C20.0024 109.912 31.2262 113.544 31.2262 113.544L31.2371 113.556Z" fill="#706F6F"/>
</g>
<g style="mix-blend-mode:multiply">
<path d="M168.607 145.67C168.607 145.67 155.771 150.141 157.048 168.877C158.325 187.612 170.22 210.45 173.619 217.301C177.017 224.151 190.611 237.082 202.073 240.772C213.535 244.461 245.919 245.024 258.615 237.519C258.615 237.519 223.092 246.392 195.85 231.484C195.85 231.484 181.401 223.209 177.298 206.45C177.298 206.45 174.041 191.163 171.843 185.888C168.315 177.451 163.856 175.417 160.879 163.279C158.336 152.9 168.618 145.659 168.618 145.659L168.607 145.67Z" fill="#706F6F"/>
</g>
<g style="mix-blend-mode:multiply">
<path d="M163.845 183.118C163.845 183.118 164.689 191.232 172.764 202.519L163.845 183.118Z" fill="#706F6F"/>
</g>
<g style="mix-blend-mode:multiply">
<path d="M147.058 153.831C147.058 153.831 139.644 164.222 142.826 165.44C146.008 166.658 147.058 153.831 147.058 153.831Z" fill="#706F6F"/>
</g>
<g style="mix-blend-mode:multiply">
<path d="M117.413 150.003C117.413 150.003 120.162 164.428 121.645 163.29C123.127 162.153 117.413 150.003 117.413 150.003Z" fill="#706F6F"/>
</g>
<g style="mix-blend-mode:multiply">
<path d="M101.957 209.152C101.957 209.152 113.462 193.186 121.894 166.417C121.894 166.417 106.957 200.025 101.957 209.152Z" fill="#706F6F"/>
</g>
<g style="mix-blend-mode:multiply">
<path d="M121.894 149.107C121.894 149.107 141.765 153.153 147.058 151.578L152.145 149.107C152.145 149.107 144.947 151.049 140.705 150.521C136.462 149.992 121.894 149.107 121.894 149.107Z" fill="#706F6F"/>
</g>
<g style="mix-blend-mode:multiply">
<path d="M292.124 158.095C292.124 158.095 293.412 154.268 294.354 158.095C295.295 161.923 294.354 170.463 294.354 170.463C294.354 170.463 292.546 172.486 292.124 170.463C291.702 168.44 292.124 158.095 292.124 158.095Z" fill="#706F6F"/>
</g>
<g style="mix-blend-mode:multiply">
<path d="M300.382 151.245C300.382 151.245 294.711 154.049 291.94 153.819C289.169 153.59 270.034 148.348 227.173 140.567C227.173 140.567 260.704 144.682 291.94 151.934C295.436 152.751 300.382 151.245 300.382 151.245Z" fill="#706F6F"/>
</g>
<g style="mix-blend-mode:multiply">
<path d="M117.413 145.67C117.413 145.67 111.698 129.762 95.1815 122.337C86.6526 118.51 77.9614 115.338 70.6665 113.004C63.8261 110.82 58.2303 109.384 55.1565 108.843C48.8031 107.717 26.3554 103.441 24.0283 103.671C21.7013 103.901 17.0364 104.453 12.588 104.625C8.13955 104.798 6.65674 104.625 6.65674 104.625C6.65674 104.625 11.1701 106.935 18.5192 105.694C24.2773 104.729 37.3628 106.82 37.3628 106.82C37.3628 106.82 96.87 112.556 117.413 145.67Z" fill="#706F6F"/>
</g>
<path opacity="0.75" d="M14.8909 129.153C13.9385 136.107 15.3239 172.152 27.2729 192.726C39.222 213.301 67.3629 217.266 72.0494 217.22C76.736 217.174 92.0836 218.393 98.5343 206.565C103.914 196.692 112.789 156.589 108.405 145.59C101.63 128.555 64.6787 117.981 64.6787 117.981C64.6787 117.981 35.6178 111.705 28.0738 112.855C28.0738 112.855 17.2829 111.751 14.9017 129.142L14.8909 129.153Z" fill="#FFB800"/>
<path opacity="0.75" d="M156.962 163.348C156.962 163.348 155.782 152.371 178.143 144.164C190.872 139.498 243.582 147.877 243.582 147.877C243.582 147.877 264.244 152.544 267.079 157.394C269.915 162.245 277.318 177.21 276.052 201.037C274.818 224.266 268.14 231.841 262.404 235.875C262.404 235.875 254.719 241.542 239.307 242.691C210.462 244.852 199.249 241.381 189.313 233.806C156.973 209.14 156.973 163.348 156.973 163.348H156.962Z" fill="#FFB800"/>
<path d="M254.881 159.67C254.881 159.67 265.574 160.957 266.505 172.072C266.505 172.072 261.386 161.095 254.881 159.67Z" fill="white"/>
<path d="M7.05672 50.2712C7.05672 50.2712 60.4703 43.869 66.5098 40.2025C72.5492 36.5359 78.5671 31.0532 87.6154 29.2257C96.6638 27.3981 157.405 16.4214 157.405 16.4214C157.405 16.4214 165.154 14.1341 176.357 22.8235C187.559 31.513 212.117 59.4204 219.001 58.5124C225.895 57.5929 229.337 47.5356 227.183 42.961C225.03 38.3864 183.175 5.30666 175.935 3.14579C165.62 0.0653986 152.242 0.398725 135.866 3.14579C119.501 5.89286 10.0765 29.9728 10.0765 29.9728C10.0765 29.9728 -4.1347 37.0071 7.05672 50.2712Z" fill="black" stroke="black" stroke-width="0.541171" stroke-miterlimit="10"/>
<g style="mix-blend-mode:multiply">
<path d="M222.886 45.2368C222.886 45.2368 222.551 52.3057 218.579 51.639C213.199 50.7425 179.809 12.7548 168.607 14.5823C168.607 14.5823 177.839 17.6972 188.587 27.9614C195.633 34.6968 225.841 71.4662 222.886 45.2368Z" fill="#706F6F"/>
</g>
<path d="M294.917 78.443L392.912 44.2139C392.912 44.2139 416.864 37.7427 420.349 39.5933C423.834 41.4438 439.518 74.7419 439.518 78.443C439.518 82.1441 436.898 94.5461 433.424 95.5576C430.902 96.2932 427.655 95.684 426.021 90.7186C424.495 86.098 418.617 54.2481 412.524 54.547C406.43 54.8458 357.649 72.8799 357.649 72.8799C357.649 72.8799 343.276 80.282 337.182 85.8336C331.088 91.3852 302.341 98.7874 302.341 98.7874C302.341 98.7874 291.886 89.9945 294.938 78.4315L294.917 78.443Z" fill="black" stroke="black" stroke-width="0.541171" stroke-miterlimit="10"/>
<g style="mix-blend-mode:multiply">
<path d="M302.006 78.9488C302.006 78.9488 412.697 38.5014 418.736 42.1795C418.736 42.1795 399.038 45.0415 373.538 55.8343C348.038 66.6272 302.006 81.1556 302.006 81.1556V78.9488Z" fill="#706F6F"/>
</g>
<g style="mix-blend-mode:multiply">
<path d="M414.591 53.6275C414.591 53.6275 418.12 53.6275 419.981 57.5929C421.843 61.5583 430.556 85.9946 430.556 85.9946C430.556 85.9946 431.389 91.7186 436.152 82.9142C436.152 82.9142 432.829 93.9024 430.35 90.7186C427.872 87.5348 419.776 60.4549 419.776 60.4549C419.776 60.4549 416.669 52.7079 414.591 53.6275Z" fill="#706F6F"/>
</g>
<path d="M306.303 79.7763C306.043 75.8568 295.945 73.7764 292.547 72.4201C289.148 71.0638 275.554 74.673 275.554 74.673C262.382 71.0638 216.512 64.2939 190.179 64.2939C163.845 64.2939 154.927 77.374 151.95 76.9258C148.974 76.4775 133.258 76.0292 126.461 74.673C119.664 73.3167 120.941 58.4319 83.9793 44.2368C47.0282 30.0532 10.077 29.9728 10.077 29.9728C-4.37226 35.329 2.76038 51.2252 2.76038 51.2252L4.97918 58.5239C9.6549 60.8572 8.37774 70.6156 10.077 85.052C11.7763 99.4885 18.1513 117.982 25.3705 129.258C32.5897 140.534 59.7782 153.165 73.3724 153.614C86.9666 154.062 98.8615 151.361 107.78 136.016C116.699 120.683 126.05 93.6151 126.05 93.6151L137.09 95.4196C137.09 95.4196 140.239 95.7759 142.88 98.9713C145.521 102.167 147.675 108.201 151.106 118.867C159.289 144.269 178.295 163.981 178.295 163.981C178.295 163.981 184.356 172.521 214.488 178.533C239.469 183.521 260.704 175.705 260.704 175.705C279.883 167.464 284.115 124.028 284.115 124.028C284.115 124.028 286.096 108.741 292.568 104.891C300.545 100.132 301.519 99.7874 306.325 98.7759C310.232 97.9598 306.585 83.6843 306.325 79.7648L306.303 79.7763ZM95.4521 137.833C85.2565 143.694 60.6224 145.947 45.3289 133.327C30.0354 120.695 22.8162 98.592 20.6948 72.4316C18.5734 46.2713 28.3794 43.4323 28.3794 43.4323C28.3794 43.4323 44.4847 42.6622 65.2981 48.0643C86.1115 53.478 109.046 68.811 109.479 78.7418C109.901 88.6612 105.659 131.971 95.463 137.833H95.4521ZM262.382 165.797C252.608 170.763 239.144 171.211 227.823 170.303C216.501 169.407 187.191 168.499 176.574 134.212C176.574 134.212 173.597 117.971 171.054 114.362C168.51 110.753 160.858 97.7184 160.858 93.1783C160.858 83.7187 168.597 78.2706 168.597 78.2706C168.597 78.2706 177.429 72.4086 188.891 72.4086C200.364 72.4086 258.972 75.5695 267.047 87.2934C275.121 99.0173 274.688 112.557 275.965 123.385C277.242 134.212 272.145 160.82 262.371 165.786L262.382 165.797Z" fill="#DAB277" stroke="black" stroke-width="0.541171" stroke-miterlimit="10"/>
<g style="mix-blend-mode:multiply">
<path d="M31.2371 43.4668C31.2371 43.4668 18.9958 39.8462 16.4414 54.5585C13.8979 69.2708 14.7855 89.7416 22.3835 112.12C29.9815 134.499 51.2712 142.534 51.2712 142.534C51.2712 142.534 68.5346 149.384 84.4017 146.396C92.476 144.878 96.4482 140.729 98.7969 134.315C98.7969 134.315 83.222 153.212 47.3315 134.833C40.8374 131.511 35.8587 123.925 31.9189 116.534C24.2993 102.259 20.944 84.7303 20.6842 72.4202C20.0024 39.8232 31.2262 43.4553 31.2262 43.4553L31.2371 43.4668Z" fill="#706F6F"/>
</g>
<g style="mix-blend-mode:multiply">
<path d="M168.607 75.581C168.607 75.581 155.771 80.0521 157.048 98.7874C158.325 117.523 170.22 140.361 173.619 147.212C177.017 154.062 190.611 166.993 202.073 170.682C213.535 174.372 245.919 174.935 258.615 167.43C258.615 167.43 223.092 176.303 195.85 161.395C195.85 161.395 181.401 153.12 177.298 136.361C177.298 136.361 174.041 121.074 171.843 115.799C168.315 107.362 163.856 105.327 160.879 93.1898C158.336 82.8107 168.618 75.5695 168.618 75.5695L168.607 75.581Z" fill="#706F6F"/>
</g>
<g style="mix-blend-mode:multiply">
<path d="M163.845 113.028C163.845 113.028 164.689 121.143 172.764 132.43L163.845 113.028Z" fill="#706F6F"/>
</g>
<g style="mix-blend-mode:multiply">
<path d="M147.058 83.7417C147.058 83.7417 139.644 94.1323 142.826 95.3507C146.008 96.569 147.058 83.7417 147.058 83.7417Z" fill="#706F6F"/>
</g>
<g style="mix-blend-mode:multiply">
<path d="M117.412 79.9142C117.412 79.9142 120.161 94.3392 121.644 93.2012C123.127 92.0633 117.412 79.9142 117.412 79.9142Z" fill="#706F6F"/>
</g>
<g style="mix-blend-mode:multiply">
<path d="M101.957 139.062C101.957 139.062 113.462 123.097 121.894 96.3277C121.894 96.3277 106.957 129.936 101.957 139.062Z" fill="#706F6F"/>
</g>
<g style="mix-blend-mode:multiply">
<path d="M121.894 79.0177C121.894 79.0177 141.765 83.0636 147.058 81.4889L152.145 79.0177C152.145 79.0177 144.947 80.9602 140.705 80.4315C136.462 79.9028 121.894 79.0177 121.894 79.0177Z" fill="#706F6F"/>
</g>
<g style="mix-blend-mode:multiply">
<path d="M292.124 88.006C292.124 88.006 293.412 84.1785 294.353 88.006C295.295 91.8335 294.353 100.374 294.353 100.374C294.353 100.374 292.546 102.396 292.124 100.374C291.702 98.3506 292.124 88.006 292.124 88.006Z" fill="#706F6F"/>
</g>
<g style="mix-blend-mode:multiply">
<path d="M300.382 81.1556C300.382 81.1556 294.711 83.9601 291.94 83.7302C289.169 83.5004 270.034 78.2591 227.173 70.4777C227.173 70.4777 260.704 74.5925 291.94 81.8452C295.436 82.6613 300.382 81.1556 300.382 81.1556Z" fill="#706F6F"/>
</g>
<g style="mix-blend-mode:multiply">
<path d="M117.413 75.581C117.413 75.581 111.698 59.6733 95.1815 52.2482C86.6526 48.4207 77.9614 45.2483 70.6665 42.915C63.8261 40.7312 58.2303 39.2944 55.1565 38.7542C48.8031 37.6278 26.3554 33.352 24.0283 33.5819C21.7013 33.8118 17.0364 34.3635 12.588 34.5359C8.13955 34.7083 6.65674 34.5359 6.65674 34.5359C6.65674 34.5359 11.1701 36.8462 18.5192 35.6048C24.2773 34.6393 37.3628 36.7313 37.3628 36.7313C37.3628 36.7313 96.87 42.4668 117.413 75.581Z" fill="#706F6F"/>
</g>
<path opacity="0.75" d="M15.1644 59.1445C14.2119 66.0984 15.5973 102.144 27.5464 122.718C39.4954 143.292 67.6363 147.258 72.3229 147.212C77.0094 147.166 92.357 148.384 98.8078 136.557C104.187 126.683 113.062 86.5807 108.679 75.581C101.903 58.5468 64.9521 47.9724 64.9521 47.9724C64.9521 47.9724 35.8912 41.6966 28.3473 42.846C28.3473 42.846 17.5563 41.7426 15.1752 59.133L15.1644 59.1445Z" fill="white"/>
<path opacity="0.75" d="M156.961 93.2588C156.961 93.2588 155.782 82.282 178.143 74.0753C190.871 69.4087 243.581 77.7878 243.581 77.7878C243.581 77.7878 264.243 82.4544 267.079 87.3049C269.915 92.1553 277.318 107.121 276.052 130.948C274.818 154.177 268.14 161.752 262.403 165.786C262.403 165.786 254.719 171.452 239.306 172.602C210.462 174.763 199.249 171.292 189.313 163.717C156.972 139.051 156.972 93.2588 156.972 93.2588H156.961Z" fill="white"/>
<path d="M254.881 89.5806C254.881 89.5806 265.574 90.868 266.505 101.983C266.505 101.983 261.386 91.0059 254.881 89.5806Z" fill="white"/>
</svg>
