<svg width="264" height="109" viewBox="0 0 264 109" fill="none" xmlns="http://www.w3.org/2000/svg">
<path d="M4.62351 30.5037C4.62351 30.5037 36.5808 26.6733 40.1943 24.4795C43.8077 22.2858 47.4081 19.0056 52.8218 17.9121C58.2354 16.8187 94.5768 10.2513 94.5768 10.2513C94.5768 10.2513 99.2134 8.88281 105.916 14.0817C112.618 19.2806 127.311 35.9776 131.43 35.4344C135.555 34.8842 137.614 28.867 136.325 26.13C135.037 23.393 109.995 3.60138 105.663 2.30853C99.4918 0.465532 91.4879 0.664961 81.6902 2.30853C71.8991 3.9521 6.43021 18.3591 6.43021 18.3591C6.43021 18.3591 -2.07232 22.5678 4.62351 30.5037Z" fill="black" stroke="black" stroke-width="0.323783" stroke-miterlimit="10"/>
<g style="mix-blend-mode:multiply">
<path d="M133.755 27.4916C133.755 27.4916 133.554 31.7209 131.177 31.322C127.959 30.7856 107.982 8.05759 101.279 9.15101C101.279 9.15101 106.803 11.0146 113.233 17.1557C117.449 21.1855 135.523 43.1846 133.755 27.4916Z" fill="#706F6F"/>
</g>
<path d="M176.85 47.3589L235.481 26.8796C235.481 26.8796 249.812 23.0079 251.897 24.1151C253.982 25.2223 263.365 45.1446 263.365 47.3589C263.365 49.5732 261.798 56.9934 259.719 57.5985C258.211 58.0387 256.268 57.6742 255.29 54.7034C254.377 51.9389 250.861 32.8831 247.215 33.0619C243.569 33.2407 214.383 44.0305 214.383 44.0305C214.383 44.0305 205.784 48.4592 202.138 51.7807C198.492 55.1022 181.293 59.5309 181.293 59.5309C181.293 59.5309 175.037 54.2701 176.863 47.352L176.85 47.3589Z" fill="black" stroke="black" stroke-width="0.323783" stroke-miterlimit="10"/>
<g style="mix-blend-mode:multiply">
<path d="M181.092 47.6616C181.092 47.6616 247.318 23.4619 250.932 25.6625C250.932 25.6625 239.146 27.3748 223.889 33.8322C208.633 40.2896 181.092 48.9819 181.092 48.9819V47.6616Z" fill="#706F6F"/>
</g>
<g style="mix-blend-mode:multiply">
<path d="M248.452 32.5117C248.452 32.5117 250.563 32.5117 251.677 34.8842C252.79 37.2567 258.003 51.8769 258.003 51.8769C258.003 51.8769 258.502 55.3016 261.351 50.0339C261.351 50.0339 259.363 56.6082 257.88 54.7033C256.397 52.7984 251.554 36.5965 251.554 36.5965C251.554 36.5965 249.695 31.9615 248.452 32.5117Z" fill="#706F6F"/>
</g>
<path d="M183.663 48.1566C183.508 45.8116 177.466 44.5669 175.432 43.7554C173.399 42.9439 165.266 45.1032 165.266 45.1032C157.385 42.9439 129.941 38.8934 114.186 38.8934C98.4304 38.8934 93.0944 46.7193 91.3136 46.4511C89.5328 46.1829 80.1302 45.9147 76.0635 45.1032C71.9968 44.2918 72.7609 35.3862 50.6465 26.8933C28.5387 18.4073 6.43078 18.3591 6.43078 18.3591C-2.21422 21.5637 2.05324 31.0744 2.05324 31.0744L3.38074 35.4413C6.17823 36.8373 5.4141 42.6757 6.43078 51.3131C7.44745 59.9504 11.2616 71.0153 15.5809 77.7615C19.9001 84.5077 36.167 92.0653 44.3004 92.3335C52.4338 92.6017 59.5506 90.9857 64.8865 81.8051C70.2224 72.6313 75.8174 56.4363 75.8174 56.4363L82.4226 57.516C82.4226 57.516 84.307 57.7292 85.887 59.6409C87.4671 61.5527 88.7557 65.1631 90.8085 71.5448C95.7041 86.7427 107.075 98.5365 107.075 98.5365C107.075 98.5365 110.702 103.646 128.73 107.243C143.676 110.227 156.381 105.551 156.381 105.551C167.856 100.62 170.388 74.6325 170.388 74.6325C170.388 74.6325 171.573 65.4863 175.445 63.1825C180.218 60.3355 180.801 60.1292 183.676 59.524C186.014 59.0358 183.831 50.4947 183.676 48.1497L183.663 48.1566ZM57.5107 82.8916C51.4107 86.3988 36.6721 87.7467 27.522 80.1959C18.3719 72.6382 14.0526 59.414 12.7834 43.7623C11.5142 28.1105 17.3811 26.4119 17.3811 26.4119C17.3811 26.4119 27.0169 25.9512 39.4696 29.1833C51.9222 32.4223 65.6441 41.5961 65.9032 47.5377C66.1557 53.4724 63.6173 79.3844 57.5172 82.8916H57.5107ZM157.385 99.623C151.537 102.594 143.481 102.862 136.708 102.319C129.934 101.782 112.398 101.239 106.046 80.7254C106.046 80.7254 104.265 71.0084 102.743 68.8491C101.221 66.6897 96.6431 58.8914 96.6431 56.175C96.6431 50.5153 101.273 47.2557 101.273 47.2557C101.273 47.2557 106.557 43.7485 113.415 43.7485C120.279 43.7485 155.345 45.6396 160.176 52.654C165.007 59.6684 164.748 67.7694 165.512 74.2474C166.276 80.7254 163.226 96.6453 157.378 99.6161L157.385 99.623Z" fill="#DAB277" stroke="black" stroke-width="0.323783" stroke-miterlimit="10"/>
<g style="mix-blend-mode:multiply">
<path d="M19.0909 26.4327C19.0909 26.4327 11.7669 24.2665 10.2387 33.0689C8.71689 41.8713 9.24789 54.1189 13.7938 67.5082C18.3397 80.8974 31.0773 85.7044 31.0773 85.7044C31.0773 85.7044 41.406 89.803 50.8993 88.015C55.7301 87.1073 58.1067 84.6247 59.5119 80.7874C59.5119 80.7874 50.1934 92.093 28.7202 81.0969C24.8348 79.1095 21.856 74.5707 19.4989 70.1489C14.94 61.6078 12.9325 51.1206 12.7771 43.7555C12.3692 24.2527 19.0844 26.4258 19.0844 26.4258L19.0909 26.4327Z" fill="#706F6F"/>
</g>
<g style="mix-blend-mode:multiply">
<path d="M101.28 45.6465C101.28 45.6465 93.5994 48.3216 94.3635 59.5309C95.1276 70.7402 102.244 84.4045 104.278 88.5031C106.311 92.6017 114.445 100.338 121.302 102.546C128.16 104.753 147.535 105.09 155.131 100.6C155.131 100.6 133.878 105.908 117.579 96.9892C117.579 96.9892 108.934 92.0378 106.479 82.0114C106.479 82.0114 104.53 72.8651 103.216 69.7087C101.105 64.6611 98.4367 63.4438 96.6559 56.1819C95.1341 49.9721 101.286 45.6396 101.286 45.6396L101.28 45.6465Z" fill="#706F6F"/>
</g>
<g style="mix-blend-mode:multiply">
<path d="M98.4302 68.0513C98.4302 68.0513 98.9353 72.9063 103.766 79.6594L98.4302 68.0513Z" fill="#706F6F"/>
</g>
<g style="mix-blend-mode:multiply">
<path d="M88.3867 50.5293C88.3867 50.5293 83.9509 56.746 85.8547 57.4749C87.7586 58.2039 88.3867 50.5293 88.3867 50.5293Z" fill="#706F6F"/>
</g>
<g style="mix-blend-mode:multiply">
<path d="M70.6494 48.2393C70.6494 48.2393 72.2942 56.8697 73.1814 56.1889C74.0686 55.5081 70.6494 48.2393 70.6494 48.2393Z" fill="#706F6F"/>
</g>
<g style="mix-blend-mode:multiply">
<path d="M61.4028 83.6277C61.4028 83.6277 68.2865 74.0758 73.331 58.0596C73.331 58.0596 64.3946 78.1675 61.4028 83.6277Z" fill="#706F6F"/>
</g>
<g style="mix-blend-mode:multiply">
<path d="M73.3306 47.7029C73.3306 47.7029 85.2199 50.1235 88.3865 49.1814L91.43 47.7029C91.43 47.7029 87.1237 48.8651 84.5852 48.5487C82.0468 48.2324 73.3306 47.7029 73.3306 47.7029Z" fill="#706F6F"/>
</g>
<g style="mix-blend-mode:multiply">
<path d="M175.179 53.0805C175.179 53.0805 175.95 50.7905 176.513 53.0805C177.077 55.3705 176.513 60.48 176.513 60.48C176.513 60.48 175.432 61.6903 175.179 60.48C174.927 59.2697 175.179 53.0805 175.179 53.0805Z" fill="#706F6F"/>
</g>
<g style="mix-blend-mode:multiply">
<path d="M180.121 48.9819C180.121 48.9819 176.727 50.6598 175.07 50.5223C173.412 50.3847 161.963 47.2489 136.319 42.5933C136.319 42.5933 156.381 45.0552 175.07 49.3945C177.161 49.8827 180.121 48.9819 180.121 48.9819Z" fill="#706F6F"/>
</g>
<g style="mix-blend-mode:multiply">
<path d="M70.6496 45.6466C70.6496 45.6466 67.2305 36.129 57.3486 31.6865C52.2458 29.3966 47.0459 27.4985 42.6813 26.1025C38.5887 24.7959 35.2408 23.9363 33.4017 23.6131C29.6005 22.9392 16.17 20.381 14.7777 20.5185C13.3854 20.6561 10.5944 20.9862 7.93293 21.0893C5.27144 21.1925 4.38428 21.0893 4.38428 21.0893C4.38428 21.0893 7.08462 22.4716 11.4816 21.7289C14.9266 21.1512 22.7557 22.4028 22.7557 22.4028C22.7557 22.4028 58.3588 25.8343 70.6496 45.6466Z" fill="#706F6F"/>
</g>
<path opacity="0.75" d="M9.47457 35.8126C8.90471 39.9731 9.73359 61.5389 16.8827 73.8485C24.0318 86.1581 40.8685 88.5306 43.6725 88.5031C46.4765 88.4756 55.6589 89.2045 59.5184 82.1282C62.7368 76.221 68.0468 52.2276 65.4242 45.6465C61.3704 35.455 39.2626 29.1283 39.2626 29.1283C39.2626 29.1283 21.8754 25.3735 17.3619 26.0612C17.3619 26.0612 10.9057 25.401 9.48104 35.8057L9.47457 35.8126Z" fill="white"/>
<path opacity="0.75" d="M94.3116 56.2231C94.3116 56.2231 93.6058 49.6557 106.984 44.7456C114.6 41.9536 146.136 46.9668 146.136 46.9668C146.136 46.9668 158.498 49.7589 160.195 52.6609C161.892 55.5629 166.321 64.5166 165.563 78.7723C164.825 92.6705 160.83 97.2023 157.397 99.6161C157.397 99.6161 152.8 103.006 143.578 103.694C126.321 104.987 119.612 102.91 113.667 98.3783C94.3181 83.6205 94.3181 56.2231 94.3181 56.2231H94.3116Z" fill="white"/>
<path d="M152.897 54.0225C152.897 54.0225 159.295 54.7927 159.852 61.4426C159.852 61.4426 156.789 54.8752 152.897 54.0225Z" fill="white"/>
</svg>
