<svg width="259" height="107" viewBox="0 0 259 107" fill="none" xmlns="http://www.w3.org/2000/svg">
<path d="M4.54946 29.9003C4.54946 29.9003 35.8533 26.1483 39.3928 23.9994C42.9324 21.8505 46.4592 18.6374 51.7621 17.5663C57.0651 16.4952 92.6633 10.0621 92.6633 10.0621C92.6633 10.0621 97.205 8.72162 103.77 13.8142C110.336 18.9068 124.728 35.2624 128.763 34.7302C132.803 34.1913 134.82 28.2971 133.558 25.6161C132.296 22.9351 107.767 3.54819 103.523 2.28177C97.4778 0.476461 89.6376 0.671812 80.0403 2.28177C70.4493 3.89173 6.31922 18.0041 6.31922 18.0041C6.31922 18.0041 -2.00944 22.1267 4.54946 29.9003Z" fill="black" stroke="black" stroke-width="0.317162" stroke-miterlimit="10"/>
<g style="mix-blend-mode:multiply">
<path d="M131.04 26.9498C131.04 26.9498 130.843 31.0925 128.515 30.7018C125.363 30.1764 105.794 7.91315 99.2285 8.98421C99.2285 8.98421 104.639 10.8097 110.938 16.8252C115.068 20.7726 132.772 42.3219 131.04 26.9498Z" fill="#706F6F"/>
</g>
<path d="M173.254 46.4108L230.686 26.3503C230.686 26.3503 244.724 22.5578 246.766 23.6423C248.809 24.7268 258 44.2417 258 46.4108C258 48.5798 256.465 55.8482 254.429 56.441C252.951 56.8721 251.048 56.5151 250.09 53.6051C249.196 50.8971 245.751 32.231 242.18 32.4061C238.609 32.5813 210.02 43.1504 210.02 43.1504C210.02 43.1504 201.596 47.4886 198.025 50.7422C194.454 53.9958 177.606 58.3339 177.606 58.3339C177.606 58.3339 171.478 53.1807 173.267 46.404L173.254 46.4108Z" fill="black" stroke="black" stroke-width="0.317162" stroke-miterlimit="10"/>
<g style="mix-blend-mode:multiply">
<path d="M177.409 46.7073C177.409 46.7073 242.281 23.0025 245.82 25.1581C245.82 25.1581 234.276 26.8354 219.331 33.1608C204.386 39.4861 177.409 48.0007 177.409 48.0007V46.7073Z" fill="#706F6F"/>
</g>
<g style="mix-blend-mode:multiply">
<path d="M243.392 31.8672C243.392 31.8672 245.46 31.8672 246.551 34.1912C247.642 36.5152 252.748 50.8364 252.748 50.8364C252.748 50.8364 253.236 54.1911 256.027 49.0311C256.027 49.0311 254.08 55.471 252.627 53.605C251.175 51.7391 246.43 35.8685 246.43 35.8685C246.43 35.8685 244.61 31.3283 243.392 31.8672Z" fill="#706F6F"/>
</g>
<path d="M179.928 47.192C179.775 44.895 173.857 43.6757 171.865 42.8808C169.874 42.086 161.907 44.2011 161.907 44.2011C154.187 42.086 127.304 38.1183 111.871 38.1183C96.438 38.1183 91.2112 45.7841 89.4668 45.5214C87.7224 45.2587 78.512 44.996 74.5285 44.2011C70.545 43.4063 71.2934 34.6828 49.6313 26.3636C27.9755 18.0511 6.31972 18.0039 6.31972 18.0039C-2.14849 21.143 2.0317 30.4592 2.0317 30.4592L3.33206 34.7367C6.07234 36.1042 5.32383 41.8232 6.31972 50.284C7.31561 58.7447 11.0518 69.5833 15.2827 76.1915C19.5136 82.7998 35.4478 90.2029 43.4149 90.4656C51.382 90.7283 58.3533 89.1453 63.5801 80.1524C68.8069 71.1663 74.2875 55.3025 74.2875 55.3025L80.7575 56.36C80.7575 56.36 82.6034 56.5689 84.1512 58.4415C85.6989 60.3142 86.9612 63.8507 88.972 70.102C93.7675 84.989 104.906 96.5417 104.906 96.5417C104.906 96.5417 108.458 101.547 126.118 105.07C140.758 107.993 153.204 103.413 153.204 103.413C164.444 98.5828 166.924 73.1265 166.924 73.1265C166.924 73.1265 168.085 64.1673 171.878 61.9107C176.553 59.1219 177.124 58.9198 179.94 58.327C182.23 57.8487 180.093 49.4823 179.94 47.1853L179.928 47.192ZM56.3551 81.2168C50.3798 84.6522 35.9426 85.9725 26.9796 78.5762C18.0166 71.173 13.7857 58.2192 12.5424 42.8876C11.2992 27.5559 17.0461 25.892 17.0461 25.892C17.0461 25.892 26.4849 25.4407 38.6829 28.6067C50.8809 31.7795 64.3222 40.7657 64.576 46.5858C64.8234 52.3991 62.3368 77.7813 56.3615 81.2168H56.3551ZM154.187 97.606C148.459 100.516 140.568 100.779 133.933 100.247C127.298 99.7212 110.12 99.189 103.898 79.0948C103.898 79.0948 102.153 69.5765 100.663 67.4614C99.172 65.3462 94.6873 57.7073 94.6873 55.0465C94.6873 49.5026 99.2227 46.3096 99.2227 46.3096C99.2227 46.3096 104.399 42.8741 111.116 42.8741C117.84 42.8741 152.189 44.7266 156.921 51.5975C161.653 58.4685 161.399 66.4038 162.148 72.7493C162.896 79.0948 159.908 94.6892 154.18 97.5993L154.187 97.606Z" fill="#774D0D" stroke="black" stroke-width="0.317162" stroke-miterlimit="10"/>
<g style="mix-blend-mode:multiply">
<path d="M18.7209 25.9125C18.7209 25.9125 11.5467 23.7906 10.0497 32.413C8.559 41.0353 9.07915 53.0326 13.5321 66.148C17.985 79.2635 30.4622 83.9721 30.4622 83.9721C30.4622 83.9721 40.5796 87.9869 49.8788 86.2355C54.6109 85.3463 56.9388 82.9145 58.3153 79.1557C58.3153 79.1557 49.1874 90.2301 28.1532 79.4588C24.3473 77.5121 21.4294 73.0662 19.1205 68.7348C14.6549 60.3684 12.6884 50.0956 12.5362 42.8811C12.1366 23.7771 18.7145 25.9058 18.7145 25.9058L18.7209 25.9125Z" fill="#706F6F"/>
</g>
<g style="mix-blend-mode:multiply">
<path d="M99.2288 44.7335C99.2288 44.7335 91.7057 47.3539 92.4542 58.334C93.2027 69.3141 100.174 82.699 102.166 86.7138C104.157 90.7286 112.125 98.3068 118.842 100.469C125.56 102.631 144.539 102.962 151.979 98.5628C151.979 98.5628 131.161 103.763 115.195 95.0263C115.195 95.0263 106.726 90.1762 104.322 80.3548C104.322 80.3548 102.413 71.3956 101.125 68.3036C99.0575 63.3592 96.4441 62.1669 94.6997 55.0535C93.2091 48.9706 99.2351 44.7268 99.2351 44.7268L99.2288 44.7335Z" fill="#706F6F"/>
</g>
<g style="mix-blend-mode:multiply">
<path d="M96.438 66.6802C96.438 66.6802 96.9328 71.436 101.665 78.0509L96.438 66.6802Z" fill="#706F6F"/>
</g>
<g style="mix-blend-mode:multiply">
<path d="M86.5996 49.5161C86.5996 49.5161 82.2545 55.6057 84.1194 56.3197C85.9843 57.0338 86.5996 49.5161 86.5996 49.5161Z" fill="#706F6F"/>
</g>
<g style="mix-blend-mode:multiply">
<path d="M69.2256 47.2729C69.2256 47.2729 70.8368 55.7269 71.7058 55.06C72.5748 54.3931 69.2256 47.2729 69.2256 47.2729Z" fill="#706F6F"/>
</g>
<g style="mix-blend-mode:multiply">
<path d="M60.1675 81.9377C60.1675 81.9377 66.9103 72.581 71.8517 56.8923C71.8517 56.8923 63.0981 76.5891 60.1675 81.9377Z" fill="#706F6F"/>
</g>
<g style="mix-blend-mode:multiply">
<path d="M71.8516 46.7476C71.8516 46.7476 83.4977 49.1187 86.5996 48.1958L89.5809 46.7476C89.5809 46.7476 85.3626 47.886 82.8761 47.5761C80.3895 47.2662 71.8516 46.7476 71.8516 46.7476Z" fill="#706F6F"/>
</g>
<g style="mix-blend-mode:multiply">
<path d="M171.618 52.0155C171.618 52.0155 172.373 49.7724 172.924 52.0155C173.476 54.2587 172.924 59.2637 172.924 59.2637C172.924 59.2637 171.865 60.4493 171.618 59.2637C171.37 58.0781 171.618 52.0155 171.618 52.0155Z" fill="#706F6F"/>
</g>
<g style="mix-blend-mode:multiply">
<path d="M176.458 48.0006C176.458 48.0006 173.134 49.6443 171.51 49.5096C169.886 49.3748 158.671 46.3031 133.552 41.7427C133.552 41.7427 153.204 44.1543 171.51 48.4048C173.559 48.8831 176.458 48.0006 176.458 48.0006Z" fill="#706F6F"/>
</g>
<g style="mix-blend-mode:multiply">
<path d="M69.2257 44.7335C69.2257 44.7335 65.8765 35.4105 56.1967 31.0589C51.1983 28.8157 46.1046 26.9565 41.8293 25.5891C37.8204 24.3092 34.5409 23.4672 32.7395 23.1506C29.016 22.4904 15.8601 19.9845 14.4963 20.1192C13.1325 20.254 10.3986 20.5773 7.79152 20.6784C5.18445 20.7794 4.31543 20.6784 4.31543 20.6784C4.31543 20.6784 6.96056 22.0323 11.2676 21.3048C14.6422 20.739 22.3112 21.965 22.3112 21.965C22.3112 21.965 57.1863 25.3264 69.2257 44.7335Z" fill="#706F6F"/>
</g>
<path opacity="0.75" d="M9.14102 35.0533C8.58281 39.1288 9.39475 60.2536 16.3977 72.3115C23.4006 84.3693 39.893 86.6933 42.6396 86.6664C45.3862 86.6394 54.381 87.3535 58.1615 80.4219C61.3141 74.6355 66.5155 51.1327 63.9465 44.6861C59.9757 34.703 38.3199 28.5057 38.3199 28.5057C38.3199 28.5057 21.2883 24.8277 16.8671 25.5013C16.8671 25.5013 10.5429 24.8547 9.14736 35.0466L9.14102 35.0533Z" fill="#FFB800"/>
<path opacity="0.75" d="M92.4038 55.0937C92.4038 55.0937 91.7124 48.6606 104.817 43.8509C112.277 41.116 143.169 46.0267 143.169 46.0267C143.169 46.0267 155.278 48.7616 156.94 51.6043C158.602 54.447 162.941 63.2176 162.198 77.1818C161.475 90.7957 157.561 95.2349 154.2 97.5993C154.2 97.5993 149.696 100.92 140.663 101.594C123.758 102.86 117.187 100.826 111.364 96.3868C92.4101 81.9308 92.4101 55.0937 92.4101 55.0937H92.4038Z" fill="#FFB800"/>
<path d="M149.791 52.938C149.791 52.938 156.058 53.6924 156.604 60.2064C156.604 60.2064 153.603 53.7733 149.791 52.938Z" fill="white"/>
</svg>
